<mxfile host="app.diagrams.net" agent="Mozilla/5.0 (Macintosh; Intel Mac OS X 10_15_7) AppleWebKit/537.36 (KHTML, like Gecko) Chrome/137.0.0.0 Safari/537.36" version="27.1.6">
  <diagram name="第 1 页" id="AaM_8V4XU_zN9APd3GhR">
    <mxGraphModel dx="1426" dy="681" grid="1" gridSize="10" guides="1" tooltips="1" connect="1" arrows="1" fold="1" page="1" pageScale="1" pageWidth="827" pageHeight="1169" math="0" shadow="0">
      <root>
        <mxCell id="0" />
        <mxCell id="1" parent="0" />
        <mxCell id="Nh44V6CuIT8chV2Wv2MV-132" value="" style="endArrow=classic;html=1;rounded=0;entryX=0.6;entryY=1;entryDx=0;entryDy=0;entryPerimeter=0;" edge="1" parent="1">
          <mxGeometry width="50" height="50" relative="1" as="geometry">
            <mxPoint x="275" y="430.00000000000006" as="sourcePoint" />
            <mxPoint x="275" y="290.00000000000006" as="targetPoint" />
          </mxGeometry>
        </mxCell>
        <mxCell id="Nh44V6CuIT8chV2Wv2MV-133" value="" style="endArrow=classic;html=1;rounded=0;" edge="1" parent="1">
          <mxGeometry width="50" height="50" relative="1" as="geometry">
            <mxPoint x="275" y="430.00000000000006" as="sourcePoint" />
            <mxPoint x="445" y="430.00000000000006" as="targetPoint" />
          </mxGeometry>
        </mxCell>
        <mxCell id="Nh44V6CuIT8chV2Wv2MV-134" value="" style="shape=waypoint;sketch=0;fillStyle=solid;size=6;pointerEvents=1;points=[];fillColor=none;resizable=0;rotatable=0;perimeter=centerPerimeter;snapToPoint=1;" vertex="1" parent="1">
          <mxGeometry x="275" y="410.00000000000006" width="20" height="20" as="geometry" />
        </mxCell>
        <mxCell id="Nh44V6CuIT8chV2Wv2MV-135" value="" style="shape=waypoint;sketch=0;fillStyle=solid;size=6;pointerEvents=1;points=[];fillColor=#000066;resizable=0;rotatable=0;perimeter=centerPerimeter;snapToPoint=1;" vertex="1" parent="1">
          <mxGeometry x="279" y="397.19" width="20" height="20" as="geometry" />
        </mxCell>
        <mxCell id="Nh44V6CuIT8chV2Wv2MV-136" value="" style="shape=waypoint;sketch=0;fillStyle=solid;size=6;pointerEvents=1;points=[];fillColor=#000066;resizable=0;rotatable=0;perimeter=centerPerimeter;snapToPoint=1;" vertex="1" parent="1">
          <mxGeometry x="309" y="377.19" width="20" height="20" as="geometry" />
        </mxCell>
        <mxCell id="Nh44V6CuIT8chV2Wv2MV-137" value="" style="shape=waypoint;sketch=0;fillStyle=solid;size=6;pointerEvents=1;points=[];fillColor=#000066;resizable=0;rotatable=0;perimeter=centerPerimeter;snapToPoint=1;" vertex="1" parent="1">
          <mxGeometry x="299" y="387.19" width="20" height="20" as="geometry" />
        </mxCell>
        <mxCell id="Nh44V6CuIT8chV2Wv2MV-138" value="" style="shape=waypoint;sketch=0;fillStyle=solid;size=6;pointerEvents=1;points=[];fillColor=#000066;resizable=0;rotatable=0;perimeter=centerPerimeter;snapToPoint=1;" vertex="1" parent="1">
          <mxGeometry x="349" y="357.19" width="20" height="20" as="geometry" />
        </mxCell>
        <mxCell id="Nh44V6CuIT8chV2Wv2MV-139" value="" style="shape=waypoint;sketch=0;fillStyle=solid;size=6;pointerEvents=1;points=[];fillColor=#000066;resizable=0;rotatable=0;perimeter=centerPerimeter;snapToPoint=1;" vertex="1" parent="1">
          <mxGeometry x="329" y="370.00000000000006" width="20" height="20" as="geometry" />
        </mxCell>
        <mxCell id="Nh44V6CuIT8chV2Wv2MV-140" value="" style="endArrow=none;html=1;rounded=0;exitX=0.425;exitY=1.025;exitDx=0;exitDy=0;exitPerimeter=0;" edge="1" parent="1" source="Nh44V6CuIT8chV2Wv2MV-134" target="Nh44V6CuIT8chV2Wv2MV-135">
          <mxGeometry width="50" height="50" relative="1" as="geometry">
            <mxPoint x="215" y="540" as="sourcePoint" />
            <mxPoint x="265" y="490.00000000000006" as="targetPoint" />
          </mxGeometry>
        </mxCell>
        <mxCell id="Nh44V6CuIT8chV2Wv2MV-141" value="" style="endArrow=none;html=1;rounded=0;entryX=0.35;entryY=1.14;entryDx=0;entryDy=0;entryPerimeter=0;" edge="1" parent="1" source="Nh44V6CuIT8chV2Wv2MV-135" target="Nh44V6CuIT8chV2Wv2MV-137">
          <mxGeometry width="50" height="50" relative="1" as="geometry">
            <mxPoint x="215" y="540" as="sourcePoint" />
            <mxPoint x="265" y="490.00000000000006" as="targetPoint" />
          </mxGeometry>
        </mxCell>
        <mxCell id="Nh44V6CuIT8chV2Wv2MV-142" value="" style="endArrow=none;html=1;rounded=0;entryX=1.125;entryY=0.39;entryDx=0;entryDy=0;entryPerimeter=0;exitX=0.45;exitY=0.165;exitDx=0;exitDy=0;exitPerimeter=0;" edge="1" parent="1" source="Nh44V6CuIT8chV2Wv2MV-136" target="Nh44V6CuIT8chV2Wv2MV-137">
          <mxGeometry width="50" height="50" relative="1" as="geometry">
            <mxPoint x="215" y="540" as="sourcePoint" />
            <mxPoint x="265" y="490.00000000000006" as="targetPoint" />
          </mxGeometry>
        </mxCell>
        <mxCell id="Nh44V6CuIT8chV2Wv2MV-143" value="" style="endArrow=none;html=1;rounded=0;entryX=0.7;entryY=0.25;entryDx=0;entryDy=0;entryPerimeter=0;exitX=0.85;exitY=0.315;exitDx=0;exitDy=0;exitPerimeter=0;" edge="1" parent="1" source="Nh44V6CuIT8chV2Wv2MV-136" target="Nh44V6CuIT8chV2Wv2MV-139">
          <mxGeometry width="50" height="50" relative="1" as="geometry">
            <mxPoint x="215" y="540" as="sourcePoint" />
            <mxPoint x="265" y="490.00000000000006" as="targetPoint" />
          </mxGeometry>
        </mxCell>
        <mxCell id="Nh44V6CuIT8chV2Wv2MV-144" value="" style="endArrow=none;html=1;rounded=0;entryX=0.675;entryY=0.725;entryDx=0;entryDy=0;entryPerimeter=0;fillColor=#000066;" edge="1" parent="1" source="Nh44V6CuIT8chV2Wv2MV-138" target="Nh44V6CuIT8chV2Wv2MV-139">
          <mxGeometry width="50" height="50" relative="1" as="geometry">
            <mxPoint x="215" y="540" as="sourcePoint" />
            <mxPoint x="265" y="490.00000000000006" as="targetPoint" />
          </mxGeometry>
        </mxCell>
        <mxCell id="Nh44V6CuIT8chV2Wv2MV-145" value="" style="endArrow=none;html=1;rounded=0;entryX=0.8;entryY=0.35;entryDx=0;entryDy=0;entryPerimeter=0;exitX=0.825;exitY=0.75;exitDx=0;exitDy=0;exitPerimeter=0;" edge="1" parent="1" source="Nh44V6CuIT8chV2Wv2MV-134" target="Nh44V6CuIT8chV2Wv2MV-146">
          <mxGeometry width="50" height="50" relative="1" as="geometry">
            <mxPoint x="215" y="540" as="sourcePoint" />
            <mxPoint x="375" y="350.00000000000006" as="targetPoint" />
          </mxGeometry>
        </mxCell>
        <mxCell id="Nh44V6CuIT8chV2Wv2MV-146" value="" style="shape=waypoint;sketch=0;fillStyle=solid;size=6;pointerEvents=1;points=[];fillColor=#000066;resizable=0;rotatable=0;perimeter=centerPerimeter;snapToPoint=1;" vertex="1" parent="1">
          <mxGeometry x="265" y="420.00000000000006" width="20" height="20" as="geometry" />
        </mxCell>
        <mxCell id="Nh44V6CuIT8chV2Wv2MV-147" value="" style="shape=waypoint;sketch=0;fillStyle=solid;size=6;pointerEvents=1;points=[];fillColor=#000066;resizable=0;rotatable=0;perimeter=centerPerimeter;snapToPoint=1;" vertex="1" parent="1">
          <mxGeometry x="365" y="330.00000000000006" width="20" height="20" as="geometry" />
        </mxCell>
        <mxCell id="Nh44V6CuIT8chV2Wv2MV-148" value="" style="shape=waypoint;sketch=0;fillStyle=solid;size=6;pointerEvents=1;points=[];fillColor=#000066;resizable=0;rotatable=0;perimeter=centerPerimeter;snapToPoint=1;" vertex="1" parent="1">
          <mxGeometry x="395" y="320.00000000000006" width="20" height="20" as="geometry" />
        </mxCell>
        <mxCell id="Nh44V6CuIT8chV2Wv2MV-149" value="" style="endArrow=none;html=1;rounded=0;fillColor=#000066;" edge="1" parent="1" source="Nh44V6CuIT8chV2Wv2MV-147" target="Nh44V6CuIT8chV2Wv2MV-138">
          <mxGeometry width="50" height="50" relative="1" as="geometry">
            <mxPoint x="585" y="440.00000000000006" as="sourcePoint" />
            <mxPoint x="575" y="450.00000000000006" as="targetPoint" />
          </mxGeometry>
        </mxCell>
        <mxCell id="Nh44V6CuIT8chV2Wv2MV-150" value="" style="endArrow=none;html=1;rounded=0;entryX=0.65;entryY=0.8;entryDx=0;entryDy=0;entryPerimeter=0;fillColor=#000066;exitX=1;exitY=0.75;exitDx=0;exitDy=0;exitPerimeter=0;" edge="1" parent="1" source="Nh44V6CuIT8chV2Wv2MV-148" target="Nh44V6CuIT8chV2Wv2MV-147">
          <mxGeometry width="50" height="50" relative="1" as="geometry">
            <mxPoint x="535" y="400.00000000000006" as="sourcePoint" />
            <mxPoint x="525" y="410.00000000000006" as="targetPoint" />
          </mxGeometry>
        </mxCell>
        <mxCell id="Nh44V6CuIT8chV2Wv2MV-151" value="&lt;font style=&quot;font-size: 18px;&quot;&gt;pos&lt;/font&gt;" style="text;html=1;align=center;verticalAlign=middle;resizable=0;points=[];autosize=1;strokeColor=none;fillColor=none;" vertex="1" parent="1">
          <mxGeometry x="250" y="262.81" width="50" height="40" as="geometry" />
        </mxCell>
        <mxCell id="Nh44V6CuIT8chV2Wv2MV-152" value="&lt;font style=&quot;font-size: 18px;&quot;&gt;key&lt;/font&gt;" style="text;html=1;align=center;verticalAlign=middle;resizable=0;points=[];autosize=1;strokeColor=none;fillColor=none;" vertex="1" parent="1">
          <mxGeometry x="443.5" y="410" width="50" height="40" as="geometry" />
        </mxCell>
      </root>
    </mxGraphModel>
  </diagram>
</mxfile>
